<?xml version="1.0" standalone="no"?>
<!DOCTYPE svg PUBLIC "-//W3C//DTD SVG 20010904//EN"
 "http://www.w3.org/TR/2001/REC-SVG-20010904/DTD/svg10.dtd">
<svg version="1.0" xmlns="http://www.w3.org/2000/svg"
 width="260.000000pt" height="260.000000pt" viewBox="0 0 260.000000 260.000000"
 preserveAspectRatio="xMidYMid meet">
<metadata>
Created by potrace 1.11, written by Peter Selinger 2001-2013
</metadata>
<g transform="translate(0.000000,260.000000) scale(0.100000,-0.100000)"
fill="#000000" stroke="none">
<path d="M495 2404 c-107 -23 -240 -92 -302 -156 -96 -97 -127 -151 -166 -288
-31 -110 -30 -287 2 -390 52 -169 155 -330 301 -470 32 -30 162 -156 290 -280
128 -124 299 -288 378 -365 80 -77 170 -164 200 -193 56 -54 86 -68 125 -58
25 6 27 8 361 330 121 116 283 272 360 346 231 222 318 314 377 396 135 189
183 333 174 520 -18 388 -272 624 -671 624 -154 0 -260 -35 -413 -138 -47 -31
-113 -83 -148 -115 l-62 -59 -38 35 c-74 69 -99 88 -187 147 -49 33 -125 74
-170 92 -74 29 -92 32 -211 34 -90 3 -152 -1 -200 -12z m347 -193 c58 -22 174
-95 237 -147 19 -16 68 -62 108 -101 66 -66 76 -73 113 -73 36 0 46 7 120 79
236 234 414 305 642 257 227 -49 349 -210 351 -466 1 -106 -25 -196 -85 -297
-73 -121 -123 -175 -469 -508 -80 -77 -237 -228 -348 -335 -112 -107 -206
-195 -211 -195 -5 0 -59 49 -122 109 -62 60 -221 213 -353 340 -359 345 -447
435 -499 506 -122 165 -161 312 -130 489 42 245 214 374 489 367 75 -2 114 -8
157 -25z"/>
</g>
</svg>
